<mxfile host="app.diagrams.net" modified="2024-02-21T17:36:22.848Z" agent="Mozilla/5.0 (Macintosh; Intel Mac OS X 10_15_7) AppleWebKit/537.36 (KHTML, like Gecko) Chrome/121.0.0.0 Safari/537.36" etag="gJDNwM8tSWfPG3QN79Jt" version="23.1.5" type="google">
  <diagram name="Página-1" id="1FNZX-NbP5HxKKu8dlru">
    <mxGraphModel grid="1" page="1" gridSize="10" guides="1" tooltips="1" connect="1" arrows="1" fold="1" pageScale="1" pageWidth="827" pageHeight="1169" math="0" shadow="0">
      <root>
        <mxCell id="0" />
        <mxCell id="1" parent="0" />
        <mxCell id="6WHO_hfzzqsEB2Ej_C0R-3" style="edgeStyle=orthogonalEdgeStyle;rounded=0;orthogonalLoop=1;jettySize=auto;html=1;" edge="1" parent="1" source="6WHO_hfzzqsEB2Ej_C0R-1" target="6WHO_hfzzqsEB2Ej_C0R-2">
          <mxGeometry relative="1" as="geometry">
            <Array as="points">
              <mxPoint x="140" y="279" />
              <mxPoint x="140" y="159" />
            </Array>
          </mxGeometry>
        </mxCell>
        <mxCell id="6WHO_hfzzqsEB2Ej_C0R-5" style="edgeStyle=orthogonalEdgeStyle;rounded=0;orthogonalLoop=1;jettySize=auto;html=1;" edge="1" parent="1" source="6WHO_hfzzqsEB2Ej_C0R-1" target="6WHO_hfzzqsEB2Ej_C0R-4">
          <mxGeometry relative="1" as="geometry">
            <Array as="points">
              <mxPoint x="140" y="279" />
              <mxPoint x="140" y="389" />
            </Array>
          </mxGeometry>
        </mxCell>
        <mxCell id="6WHO_hfzzqsEB2Ej_C0R-1" value="S3 Bucket&lt;br&gt;Pizzaria" style="sketch=0;points=[[0,0,0],[0.25,0,0],[0.5,0,0],[0.75,0,0],[1,0,0],[0,1,0],[0.25,1,0],[0.5,1,0],[0.75,1,0],[1,1,0],[0,0.25,0],[0,0.5,0],[0,0.75,0],[1,0.25,0],[1,0.5,0],[1,0.75,0]];outlineConnect=0;fontColor=#232F3E;fillColor=#7AA116;strokeColor=#ffffff;dashed=0;verticalLabelPosition=bottom;verticalAlign=top;align=center;html=1;fontSize=12;fontStyle=0;aspect=fixed;shape=mxgraph.aws4.resourceIcon;resIcon=mxgraph.aws4.s3;" vertex="1" parent="1">
          <mxGeometry x="40" y="240" width="78" height="78" as="geometry" />
        </mxCell>
        <mxCell id="6WHO_hfzzqsEB2Ej_C0R-22" style="edgeStyle=orthogonalEdgeStyle;rounded=0;orthogonalLoop=1;jettySize=auto;html=1;" edge="1" parent="1" source="6WHO_hfzzqsEB2Ej_C0R-2" target="6WHO_hfzzqsEB2Ej_C0R-6">
          <mxGeometry relative="1" as="geometry">
            <Array as="points">
              <mxPoint x="390" y="159" />
              <mxPoint x="390" y="279" />
            </Array>
          </mxGeometry>
        </mxCell>
        <mxCell id="6WHO_hfzzqsEB2Ej_C0R-2" value="Pasta&lt;br&gt;em-preparacao/" style="sketch=0;outlineConnect=0;fontColor=#232F3E;gradientColor=none;fillColor=#7AA116;strokeColor=none;dashed=0;verticalLabelPosition=bottom;verticalAlign=top;align=center;html=1;fontSize=12;fontStyle=0;aspect=fixed;pointerEvents=1;shape=mxgraph.aws4.bucket_with_objects;" vertex="1" parent="1">
          <mxGeometry x="230" y="120" width="75" height="78" as="geometry" />
        </mxCell>
        <mxCell id="6WHO_hfzzqsEB2Ej_C0R-4" value="Pasta&lt;br style=&quot;border-color: var(--border-color);&quot;&gt;pronto/" style="sketch=0;outlineConnect=0;fontColor=#232F3E;gradientColor=none;fillColor=#7AA116;strokeColor=none;dashed=0;verticalLabelPosition=bottom;verticalAlign=top;align=center;html=1;fontSize=12;fontStyle=0;aspect=fixed;pointerEvents=1;shape=mxgraph.aws4.bucket_with_objects;" vertex="1" parent="1">
          <mxGeometry x="230" y="350" width="75" height="78" as="geometry" />
        </mxCell>
        <mxCell id="6WHO_hfzzqsEB2Ej_C0R-24" style="edgeStyle=orthogonalEdgeStyle;rounded=0;orthogonalLoop=1;jettySize=auto;html=1;" edge="1" parent="1" source="6WHO_hfzzqsEB2Ej_C0R-6" target="6WHO_hfzzqsEB2Ej_C0R-10">
          <mxGeometry relative="1" as="geometry" />
        </mxCell>
        <mxCell id="6WHO_hfzzqsEB2Ej_C0R-25" style="edgeStyle=orthogonalEdgeStyle;rounded=0;orthogonalLoop=1;jettySize=auto;html=1;" edge="1" parent="1" source="6WHO_hfzzqsEB2Ej_C0R-6" target="6WHO_hfzzqsEB2Ej_C0R-12">
          <mxGeometry relative="1" as="geometry" />
        </mxCell>
        <mxCell id="6WHO_hfzzqsEB2Ej_C0R-6" value="Lambda&lt;br&gt;Envia para&lt;br&gt;Fila&lt;br&gt;Correta" style="sketch=0;points=[[0,0,0],[0.25,0,0],[0.5,0,0],[0.75,0,0],[1,0,0],[0,1,0],[0.25,1,0],[0.5,1,0],[0.75,1,0],[1,1,0],[0,0.25,0],[0,0.5,0],[0,0.75,0],[1,0.25,0],[1,0.5,0],[1,0.75,0]];outlineConnect=0;fontColor=#232F3E;fillColor=#ED7100;strokeColor=#ffffff;dashed=0;verticalLabelPosition=bottom;verticalAlign=top;align=center;html=1;fontSize=12;fontStyle=0;aspect=fixed;shape=mxgraph.aws4.resourceIcon;resIcon=mxgraph.aws4.lambda;" vertex="1" parent="1">
          <mxGeometry x="414" y="240" width="78" height="78" as="geometry" />
        </mxCell>
        <mxCell id="6WHO_hfzzqsEB2Ej_C0R-10" value="SQS Preparação" style="sketch=0;points=[[0,0,0],[0.25,0,0],[0.5,0,0],[0.75,0,0],[1,0,0],[0,1,0],[0.25,1,0],[0.5,1,0],[0.75,1,0],[1,1,0],[0,0.25,0],[0,0.5,0],[0,0.75,0],[1,0.25,0],[1,0.5,0],[1,0.75,0]];outlineConnect=0;fontColor=#232F3E;fillColor=#E7157B;strokeColor=#ffffff;dashed=0;verticalLabelPosition=top;verticalAlign=bottom;align=center;html=1;fontSize=12;fontStyle=0;aspect=fixed;shape=mxgraph.aws4.resourceIcon;resIcon=mxgraph.aws4.sqs;labelPosition=center;" vertex="1" parent="1">
          <mxGeometry x="560" y="120" width="78" height="78" as="geometry" />
        </mxCell>
        <mxCell id="6WHO_hfzzqsEB2Ej_C0R-17" style="edgeStyle=orthogonalEdgeStyle;rounded=0;orthogonalLoop=1;jettySize=auto;html=1;" edge="1" parent="1" source="6WHO_hfzzqsEB2Ej_C0R-12" target="6WHO_hfzzqsEB2Ej_C0R-16">
          <mxGeometry relative="1" as="geometry" />
        </mxCell>
        <mxCell id="6WHO_hfzzqsEB2Ej_C0R-12" value="SQS Pronto" style="sketch=0;points=[[0,0,0],[0.25,0,0],[0.5,0,0],[0.75,0,0],[1,0,0],[0,1,0],[0.25,1,0],[0.5,1,0],[0.75,1,0],[1,1,0],[0,0.25,0],[0,0.5,0],[0,0.75,0],[1,0.25,0],[1,0.5,0],[1,0.75,0]];outlineConnect=0;fontColor=#232F3E;fillColor=#E7157B;strokeColor=#ffffff;dashed=0;verticalLabelPosition=bottom;verticalAlign=top;align=center;html=1;fontSize=12;fontStyle=0;aspect=fixed;shape=mxgraph.aws4.resourceIcon;resIcon=mxgraph.aws4.sqs;" vertex="1" parent="1">
          <mxGeometry x="560" y="350" width="78" height="78" as="geometry" />
        </mxCell>
        <mxCell id="6WHO_hfzzqsEB2Ej_C0R-19" style="edgeStyle=orthogonalEdgeStyle;rounded=0;orthogonalLoop=1;jettySize=auto;html=1;" edge="1" parent="1" source="6WHO_hfzzqsEB2Ej_C0R-14" target="6WHO_hfzzqsEB2Ej_C0R-18">
          <mxGeometry relative="1" as="geometry" />
        </mxCell>
        <mxCell id="6WHO_hfzzqsEB2Ej_C0R-14" value="Insere Dynamo&lt;br&gt;Preparação" style="sketch=0;points=[[0,0,0],[0.25,0,0],[0.5,0,0],[0.75,0,0],[1,0,0],[0,1,0],[0.25,1,0],[0.5,1,0],[0.75,1,0],[1,1,0],[0,0.25,0],[0,0.5,0],[0,0.75,0],[1,0.25,0],[1,0.5,0],[1,0.75,0]];outlineConnect=0;fontColor=#232F3E;fillColor=#ED7100;strokeColor=#ffffff;dashed=0;verticalLabelPosition=bottom;verticalAlign=top;align=center;html=1;fontSize=12;fontStyle=0;aspect=fixed;shape=mxgraph.aws4.resourceIcon;resIcon=mxgraph.aws4.lambda;" vertex="1" parent="1">
          <mxGeometry x="720" y="120" width="78" height="78" as="geometry" />
        </mxCell>
        <mxCell id="6WHO_hfzzqsEB2Ej_C0R-15" style="edgeStyle=orthogonalEdgeStyle;rounded=0;orthogonalLoop=1;jettySize=auto;html=1;entryX=0;entryY=0.5;entryDx=0;entryDy=0;entryPerimeter=0;" edge="1" parent="1" source="6WHO_hfzzqsEB2Ej_C0R-10" target="6WHO_hfzzqsEB2Ej_C0R-14">
          <mxGeometry relative="1" as="geometry" />
        </mxCell>
        <mxCell id="6WHO_hfzzqsEB2Ej_C0R-16" value="Insere Dynamo&lt;br style=&quot;border-color: var(--border-color);&quot;&gt;Pronto" style="sketch=0;points=[[0,0,0],[0.25,0,0],[0.5,0,0],[0.75,0,0],[1,0,0],[0,1,0],[0.25,1,0],[0.5,1,0],[0.75,1,0],[1,1,0],[0,0.25,0],[0,0.5,0],[0,0.75,0],[1,0.25,0],[1,0.5,0],[1,0.75,0]];outlineConnect=0;fontColor=#232F3E;fillColor=#ED7100;strokeColor=#ffffff;dashed=0;verticalLabelPosition=bottom;verticalAlign=top;align=center;html=1;fontSize=12;fontStyle=0;aspect=fixed;shape=mxgraph.aws4.resourceIcon;resIcon=mxgraph.aws4.lambda;" vertex="1" parent="1">
          <mxGeometry x="720" y="350" width="78" height="78" as="geometry" />
        </mxCell>
        <mxCell id="6WHO_hfzzqsEB2Ej_C0R-18" value="DynamoDB&lt;br&gt;Pedidos" style="sketch=0;points=[[0,0,0],[0.25,0,0],[0.5,0,0],[0.75,0,0],[1,0,0],[0,1,0],[0.25,1,0],[0.5,1,0],[0.75,1,0],[1,1,0],[0,0.25,0],[0,0.5,0],[0,0.75,0],[1,0.25,0],[1,0.5,0],[1,0.75,0]];outlineConnect=0;fontColor=#232F3E;fillColor=#C925D1;strokeColor=#ffffff;dashed=0;verticalLabelPosition=bottom;verticalAlign=top;align=center;html=1;fontSize=12;fontStyle=0;aspect=fixed;shape=mxgraph.aws4.resourceIcon;resIcon=mxgraph.aws4.dynamodb;" vertex="1" parent="1">
          <mxGeometry x="880" y="120" width="78" height="78" as="geometry" />
        </mxCell>
        <mxCell id="6WHO_hfzzqsEB2Ej_C0R-20" value="DynamoDB&lt;br style=&quot;border-color: var(--border-color);&quot;&gt;Pedidos" style="sketch=0;points=[[0,0,0],[0.25,0,0],[0.5,0,0],[0.75,0,0],[1,0,0],[0,1,0],[0.25,1,0],[0.5,1,0],[0.75,1,0],[1,1,0],[0,0.25,0],[0,0.5,0],[0,0.75,0],[1,0.25,0],[1,0.5,0],[1,0.75,0]];outlineConnect=0;fontColor=#232F3E;fillColor=#C925D1;strokeColor=#ffffff;dashed=0;verticalLabelPosition=bottom;verticalAlign=top;align=center;html=1;fontSize=12;fontStyle=0;aspect=fixed;shape=mxgraph.aws4.resourceIcon;resIcon=mxgraph.aws4.dynamodb;" vertex="1" parent="1">
          <mxGeometry x="880" y="350" width="78" height="78" as="geometry" />
        </mxCell>
        <mxCell id="6WHO_hfzzqsEB2Ej_C0R-21" style="edgeStyle=orthogonalEdgeStyle;rounded=0;orthogonalLoop=1;jettySize=auto;html=1;entryX=0;entryY=0.5;entryDx=0;entryDy=0;entryPerimeter=0;" edge="1" parent="1" source="6WHO_hfzzqsEB2Ej_C0R-16" target="6WHO_hfzzqsEB2Ej_C0R-20">
          <mxGeometry relative="1" as="geometry" />
        </mxCell>
        <mxCell id="6WHO_hfzzqsEB2Ej_C0R-23" style="edgeStyle=orthogonalEdgeStyle;rounded=0;orthogonalLoop=1;jettySize=auto;html=1;entryX=0;entryY=0.5;entryDx=0;entryDy=0;entryPerimeter=0;" edge="1" parent="1" source="6WHO_hfzzqsEB2Ej_C0R-4" target="6WHO_hfzzqsEB2Ej_C0R-6">
          <mxGeometry relative="1" as="geometry">
            <Array as="points">
              <mxPoint x="390" y="389" />
              <mxPoint x="390" y="279" />
            </Array>
          </mxGeometry>
        </mxCell>
      </root>
    </mxGraphModel>
  </diagram>
</mxfile>
